# xmcd
#
# Track frame offsets:
#	150
#	23850
#	39378
#	65629
#	82802
#	94690
#	104886
#	131212
#	152286
#	168020
#
# Disc length: 2420 seconds
#
# Revision: 1
# Processed by: cddbd v1.5.2PL0 Copyright (c) Steve Scherf et al.
# Submitted via: audiograbber 1.83.01
#
DISCID=7609720a
DTITLE=BluesMail - First Letters
DYEAR=1900
DGENRE=Blues
TTITLE0=Linda Lou
TTITLE1=You Got Me Reelin'
TTITLE2=Little Red Rooster
TTITLE3=Start It Up
TTITLE4=Down South Jukin'
TTITLE5=Travelin' Band
TTITLE6=Ramblin' On My Mind
TTITLE7=Howlin' For My Darling
TTITLE8=Mean Old Frisco
TTITLE9=Vesterbro
EXTD=
EXTT0=
EXTT1=
EXTT2=
EXTT3=
EXTT4=
EXTT5=
EXTT6=
EXTT7=
EXTT8=
EXTT9=
PLAYORDER=
